<svg width="282" height="64" viewBox="0 0 282 64" fill="none" xmlns="http://www.w3.org/2000/svg">
<path d="M26.931 28.0642H10.4681V38.3731H29.9156V46.3728H0V3.24152H29.9745V11.2705H10.4681V20.3645H26.931V28.0642Z" fill="#EC297B"/>
<path d="M45.8406 32.3897L51.2091 14.3189H61.9756L48.8214 51.7304L48.254 53.0917C46.3859 57.238 43.0845 59.3129 38.3534 59.3129C37.0417 59.3129 35.6599 59.1153 34.2082 58.7238V51.6133H35.5199C36.9311 51.6133 38.0107 51.412 38.755 51.0058C39.4993 50.5996 40.052 49.875 40.4094 48.8247L41.2163 46.6912L30.004 14.3189H40.741L45.8406 32.3897Z" fill="#EC297B"/>
<path d="M79.8129 46.962C74.8608 46.962 70.8556 45.4946 67.7936 42.5633C64.7317 39.632 63.1989 35.8151 63.1989 31.1126V30.2819C63.1989 27.0029 63.8105 24.1119 65.0338 21.6014C66.2571 19.0946 68.0405 17.1551 70.3876 15.7791C72.7347 14.4068 75.5166 13.7188 78.737 13.7188C83.2691 13.7188 86.8506 15.1167 89.474 17.909C92.0975 20.7048 93.4092 24.5986 93.4092 29.5939V33.473H73.4274C73.7849 35.2698 74.5697 36.6824 75.7819 37.7107C76.9942 38.739 78.5638 39.2514 80.4946 39.2514C83.6744 39.2514 86.1616 38.1462 87.9523 35.9322L92.547 41.3227C91.2943 43.039 89.5183 44.4077 87.2227 45.425C84.9272 46.4534 82.4585 46.962 79.8129 46.962ZM78.6817 21.4294C75.7377 21.4294 73.9875 23.3653 73.4311 27.2371H83.5713V26.4686C83.6118 24.8694 83.2028 23.6288 82.348 22.7505C81.4931 21.8686 80.2698 21.4294 78.6817 21.4294Z" fill="#EC297B"/>
<path d="M127.894 30.3148L123.597 34.9953V46.3692H113.129V3.24152H123.597V22.2601L127.238 16.7782L136.604 3.24152H149.548L134.872 22.3187L149.548 46.3728H137.142L127.894 30.3148Z" fill="#EC297B"/>
<path d="M169.917 46.3692C169.56 45.7178 169.239 44.759 168.963 43.4965C167.113 45.8056 164.53 46.962 161.207 46.962C158.163 46.962 155.58 46.0471 153.45 44.221C151.324 42.3949 150.259 40.1004 150.259 37.3338C150.259 33.8572 151.553 31.2333 154.136 29.4548C156.719 27.6763 160.477 26.787 165.411 26.787H168.513V25.089C168.513 22.1321 167.231 20.6536 164.666 20.6536C162.279 20.6536 161.089 21.8247 161.089 24.1668H151.037C151.037 21.0708 152.363 18.5567 155.02 16.6208C157.673 14.6886 161.059 13.7224 165.175 13.7224C169.291 13.7224 172.54 14.7215 174.928 16.7159C177.316 18.7104 178.535 21.4441 178.598 24.9206V39.1087C178.639 42.0509 179.095 44.3015 179.969 45.8642V46.3692H169.917ZM163.624 39.8552C164.876 39.8552 165.916 39.5881 166.741 39.0538C167.566 38.5195 168.156 37.9193 168.517 37.246V32.1226H165.595C162.095 32.1226 160.344 33.6816 160.344 36.8032C160.344 37.7107 160.654 38.4463 161.269 39.0099C161.885 39.5734 162.669 39.8552 163.624 39.8552Z" fill="#EC297B"/>
<path d="M193.388 14.3189L193.716 18.081C195.942 15.1789 199.015 13.7261 202.931 13.7261C206.292 13.7261 208.801 14.7252 210.463 16.7196C212.125 18.7141 212.983 21.7149 213.042 25.7257V46.3728H202.961V26.1393C202.961 24.5217 202.633 23.3287 201.977 22.5712C201.321 21.81 200.127 21.4294 198.399 21.4294C196.432 21.4294 194.969 22.1979 194.015 23.7386V46.3692H183.963V14.3189H193.388Z" fill="#EC297B"/>
<path d="M217.338 30.1062C217.338 25.0304 218.444 21.0305 220.651 18.1102C222.858 15.1862 225.938 13.7261 229.896 13.7261C232.777 13.7261 235.205 14.8532 237.173 17.1038V0.870117H247.254V46.3692H238.215L237.707 42.9329C235.64 45.619 233.013 46.962 229.833 46.962C225.994 46.962 222.954 45.5019 220.706 42.5779C218.462 39.6576 217.338 35.5003 217.338 30.1062ZM227.39 30.7283C227.39 36.4152 229.059 39.2587 232.401 39.2587C234.627 39.2587 236.218 38.3292 237.173 36.4738V24.2729C236.259 22.3772 234.686 21.4294 232.46 21.4294C229.358 21.4294 227.677 23.9179 227.42 28.8949L227.39 30.7283Z" fill="#EC297B"/>
<path d="M265.865 32.3897L271.233 14.3189H282L268.846 51.7304L268.278 53.0917C266.41 57.238 263.109 59.3129 258.378 59.3129C257.066 59.3129 255.684 59.1153 254.233 58.7238V51.6133H255.544C256.956 51.6133 258.035 51.412 258.779 51.0058C259.524 50.5996 260.076 49.875 260.434 48.8247L261.241 46.6912L250.025 14.3189H260.762L265.865 32.3897Z" fill="#EC297B"/>
<path d="M57.3219 60.7512H53.383L52.694 62.9652H49.621L53.9947 51.1193H56.6992L61.106 62.9652H58.0183L57.3219 60.7512ZM54.0684 58.5481H56.6329L55.3469 54.4385L54.0684 58.5481Z" fill="white"/>
<path d="M62.1782 62.9652V51.1193H66.0213C67.0751 51.1193 68.0221 51.3571 68.8659 51.8329C69.7059 52.3086 70.3655 52.9783 70.8371 53.842C71.3088 54.7056 71.5483 55.6754 71.5556 56.7513V57.2966C71.5556 58.3798 71.3235 59.3532 70.8629 60.2132C70.4023 61.0732 69.7502 61.7466 68.9138 62.2296C68.0737 62.7163 67.1414 62.9615 66.1061 62.9652H62.1782ZM65.0523 53.3223V60.7695H66.0508C66.8761 60.7695 67.5099 60.4767 67.9521 59.8948C68.3942 59.313 68.6153 58.4457 68.6153 57.2966V56.7842C68.6153 55.6388 68.3942 54.7788 67.9521 54.1969C67.5099 53.6151 66.8651 53.326 66.0176 53.326H65.0523V53.3223Z" fill="white"/>
<path d="M82.5801 51.1193V58.8738C82.5801 59.7521 82.3922 60.5133 82.0163 61.1574C81.6405 61.8015 81.0989 62.2882 80.3951 62.6248C79.6913 62.9615 78.8586 63.1299 77.8969 63.1299C76.4452 63.1299 75.2992 62.7566 74.4628 62.0064C73.6264 61.2598 73.2027 60.2315 73.1842 58.9324V51.1193H76.0767V58.9873C76.1099 60.2827 76.7141 60.9305 77.8969 60.9305C78.4938 60.9305 78.9433 60.7695 79.2492 60.4438C79.555 60.1181 79.7097 59.5911 79.7097 58.8555V51.1156H82.5801V51.1193Z" fill="white"/>
<path d="M87.4512 60.7695H92.4586V62.9652H84.5771V51.1193H87.4512V60.7695Z" fill="white"/>
<path d="M101.556 53.3223H97.9745V62.9652H95.1005V53.3223H91.5853V51.1156H101.556V53.3223Z" fill="white"/>
<path d="M106.858 62.9652V51.1193H111.143C112.68 51.1193 113.844 51.3974 114.647 51.9573C115.447 52.5172 115.849 53.326 115.849 54.3909C115.849 55.0057 115.705 55.529 115.421 55.9608C115.138 56.3963 114.721 56.7147 114.168 56.9196C114.791 57.0807 115.27 57.3881 115.602 57.8309C115.933 58.2773 116.103 58.8189 116.103 59.4594C116.103 60.6194 115.734 61.4904 114.994 62.0759C114.253 62.6615 113.159 62.9579 111.703 62.9652H106.858ZM109.736 56.056H111.236C111.862 56.0523 112.311 55.9352 112.58 55.712C112.849 55.4888 112.982 55.1594 112.982 54.7239C112.982 54.2226 112.838 53.8639 112.547 53.6443C112.256 53.4248 111.792 53.315 111.147 53.315H109.74V56.056H109.736ZM109.736 57.9297V60.7695H111.619C112.138 60.7695 112.536 60.6524 112.816 60.4145C113.096 60.1803 113.233 59.8473 113.233 59.4191C113.233 58.431 112.739 57.937 111.751 57.9297H109.736Z" fill="white"/>
<path d="M127.986 57.2857C127.986 58.4421 127.768 59.4631 127.337 60.3523C126.906 61.2416 126.295 61.9259 125.499 62.4053C124.703 62.8847 123.8 63.1263 122.783 63.1263C121.766 63.1263 120.867 62.8957 120.079 62.431C119.294 61.9662 118.678 61.3038 118.24 60.4402C117.802 59.5765 117.569 58.5885 117.547 57.4686V56.8026C117.547 55.6425 117.761 54.6178 118.192 53.7322C118.62 52.8466 119.235 52.1623 120.034 51.6792C120.834 51.1962 121.744 50.9547 122.768 50.9547C123.778 50.9547 124.681 51.1925 125.473 51.6719C126.265 52.1477 126.88 52.8283 127.319 53.7103C127.757 54.5922 127.982 55.6023 127.986 56.7404V57.2857ZM125.06 56.788C125.06 55.6096 124.861 54.7167 124.467 54.1055C124.069 53.4944 123.505 53.1906 122.768 53.1906C121.328 53.1906 120.565 54.2665 120.484 56.411L120.477 57.282C120.477 58.4421 120.672 59.335 121.059 59.9571C121.446 60.5829 122.024 60.894 122.787 60.894C123.513 60.894 124.073 60.5866 124.467 59.9754C124.861 59.3643 125.06 58.4823 125.064 57.3296V56.788H125.06Z" fill="white"/>
<path d="M139.769 57.2857C139.769 58.4421 139.552 59.4631 139.121 60.3523C138.69 61.2416 138.078 61.9259 137.282 62.4053C136.486 62.8847 135.584 63.1263 134.567 63.1263C133.55 63.1263 132.651 62.8957 131.862 62.431C131.077 61.9662 130.462 61.3038 130.023 60.4402C129.585 59.5765 129.353 58.5885 129.331 57.4686V56.8026C129.331 55.6425 129.544 54.6178 129.976 53.7322C130.403 52.8466 131.018 52.1623 131.818 51.6792C132.617 51.1962 133.528 50.9547 134.552 50.9547C135.561 50.9547 136.464 51.1925 137.256 51.6719C138.049 52.1477 138.664 52.8283 139.102 53.7103C139.541 54.5922 139.766 55.6023 139.769 56.7404V57.2857ZM136.844 56.788C136.844 55.6096 136.645 54.7167 136.25 54.1055C135.853 53.4944 135.289 53.1906 134.552 53.1906C133.111 53.1906 132.348 54.2665 132.267 56.411L132.26 57.282C132.26 58.4421 132.455 59.335 132.842 59.9571C133.229 60.5829 133.808 60.894 134.57 60.894C135.296 60.894 135.856 60.5866 136.25 59.9754C136.645 59.3643 136.844 58.4823 136.847 57.3296V56.788H136.844Z" fill="white"/>
<path d="M145.51 58.5554L144.331 59.8399V62.9652H141.457V51.1193H144.331V56.3414L145.329 54.8374L147.901 51.1193H151.457L147.426 56.3597L151.457 62.9652H148.049L145.51 58.5554Z" fill="white"/>
<path d="M155.451 62.9652H152.584V51.1193H155.451V62.9652Z" fill="white"/>
<path d="M167.614 62.9652H164.755L160.529 55.5949V62.9652H157.655V51.1193H160.529L164.747 58.4896V51.1193H167.614V62.9652Z" fill="white"/>
<path d="M179.401 61.5014C178.959 61.9882 178.311 62.3834 177.459 62.6798C176.608 62.9762 175.672 63.1263 174.659 63.1263C173.097 63.1263 171.848 62.6505 170.916 61.7027C169.983 60.7549 169.482 59.4338 169.416 57.7394L169.409 56.7148C169.409 55.5474 169.615 54.53 170.031 53.659C170.448 52.7881 171.041 52.1184 171.815 51.65C172.588 51.1815 173.48 50.9473 174.497 50.9473C175.982 50.9473 177.135 51.284 177.957 51.961C178.779 52.6344 179.258 53.6444 179.394 54.9838H176.623C176.524 54.3214 176.314 53.8493 175.986 53.5676C175.658 53.2858 175.193 53.143 174.593 53.143C173.871 53.143 173.314 53.4468 172.92 54.0543C172.526 54.6618 172.327 55.5291 172.323 56.6562V57.3735C172.323 58.5555 172.526 59.4448 172.935 60.0376C173.34 60.6305 173.981 60.9269 174.854 60.9269C175.602 60.9269 176.159 60.7622 176.527 60.4292V58.5884H174.527V56.6269H179.401V61.5014Z" fill="white"/>
<path d="M192.43 60.7512H188.491L187.802 62.9652H184.729L189.103 51.1193H191.807L196.214 62.9652H193.127L192.43 60.7512ZM189.177 58.5481H191.741L190.455 54.4385L189.177 58.5481Z" fill="white"/>
<path d="M206.878 61.5014C206.435 61.9882 205.787 62.3834 204.936 62.6798C204.085 62.9762 203.149 63.1263 202.135 63.1263C200.573 63.1263 199.324 62.6505 198.392 61.7027C197.46 60.7549 196.959 59.4338 196.892 57.7394L196.885 56.7148C196.885 55.5474 197.091 54.53 197.508 53.659C197.924 52.7881 198.517 52.1184 199.291 51.65C200.065 51.1815 200.956 50.9473 201.973 50.9473C203.458 50.9473 204.612 51.284 205.433 51.961C206.255 52.6344 206.734 53.6444 206.87 54.9838H204.099C204 54.3214 203.79 53.8493 203.462 53.5676C203.134 53.2858 202.67 53.143 202.069 53.143C201.347 53.143 200.791 53.4468 200.396 54.0543C200.002 54.6618 199.803 55.5291 199.799 56.6562V57.3735C199.799 58.5555 200.002 59.4448 200.411 60.0376C200.816 60.6305 201.458 60.9269 202.331 60.9269C203.079 60.9269 203.635 60.7622 204.004 60.4292V58.5884H202.003V56.6269H206.878V61.5014Z" fill="white"/>
<path d="M216.148 57.937H211.627V60.7695H216.97V62.9652H208.753V51.1193H216.988V53.326H211.631V55.8254H216.152V57.937H216.148Z" fill="white"/>
<path d="M228.304 62.9652H225.444L221.218 55.5949V62.9652H218.344V51.1193H221.218L225.437 58.4896V51.1193H228.304V62.9652Z" fill="white"/>
<path d="M239.973 58.9543C239.936 59.7777 239.711 60.506 239.302 61.1391C238.893 61.7722 238.319 62.2626 237.578 62.6066C236.837 62.9542 235.994 63.1262 235.043 63.1262C233.477 63.1262 232.243 62.6175 231.34 61.6038C230.437 60.5902 229.988 59.1556 229.988 57.3075V56.722C229.988 55.5619 230.19 54.5446 230.599 53.6736C231.005 52.8026 231.59 52.1293 232.357 51.6572C233.123 51.1815 234.008 50.9436 235.01 50.9436C236.458 50.9436 237.622 51.3205 238.499 52.0781C239.38 52.8356 239.877 53.8786 239.999 55.207H237.132C237.11 54.486 236.926 53.9664 236.583 53.6517C236.241 53.3369 235.714 53.1796 235.01 53.1796C234.295 53.1796 233.768 53.4467 233.436 53.9774C233.105 54.508 232.928 55.357 232.913 56.5244V57.3624C232.913 58.625 233.072 59.5289 233.392 60.0705C233.713 60.6121 234.262 60.8829 235.043 60.8829C235.703 60.8829 236.207 60.7292 236.557 60.4181C236.907 60.1107 237.092 59.6167 237.114 58.947H239.973V58.9543Z" fill="white"/>
<path d="M245.902 56.2609L248.098 51.1193H251.204L247.361 58.7128V62.9689H244.442V58.7128L240.607 51.1193H243.694L245.902 56.2609Z" fill="white"/>
</svg>
